<?xml version="1.0" encoding="UTF-8"?>
<svg version="1.1" xmlns="http://www.w3.org/2000/svg" width="150" height="150">
<path d="M0 0 C49.5 0 99 0 150 0 C150 49.5 150 99 150 150 C100.5 150 51 150 0 150 C0 100.5 0 51 0 0 Z " fill="#FEFEFE" transform="translate(0,0)"/>
<path d="M0 0 C0.02578125 1.12535156 0.0515625 2.25070313 0.078125 3.41015625 C0.87978885 27.79677061 8.95788412 48.32786136 26 66 C26.62519531 66.77472656 27.25039063 67.54945312 27.89453125 68.34765625 C29.93708279 70.30603498 29.93708279 70.30603498 32.921875 69.96484375 C47.47151972 65.40423176 59.11351293 50.06511204 66 37 C69.36620836 29.90698061 71.92309455 22.56379985 74 15 C81.69863548 15.57026929 88.53973765 17.69315843 95 22 C97.27518994 27.77139848 97.30241629 33.29168978 97.25 39.4375 C97.26160156 40.79198242 97.26160156 40.79198242 97.2734375 42.17382812 C97.23032115 57.05974966 90.77058936 71.27790741 80.3359375 81.890625 C65.91509874 94.91278709 50.30179195 97.8493267 31.50488281 97.17919922 C17.96276313 96.2103965 6.11626069 87.48459446 -3 78 C-13.84813555 64.95691095 -18.01588945 50.78334026 -17 34 C-16.60190782 30.88990482 -15.91662828 27.996065 -15 25 C-14.74347656 24.13890625 -14.48695312 23.2778125 -14.22265625 22.390625 C-12.57665468 17.38904083 -6.53698485 0 0 0 Z " fill="#108ECE" transform="translate(35,37)"/>
<path d="M0 0 C0.79164551 0.00563965 1.58329102 0.0112793 2.39892578 0.01708984 C18.75277114 0.35287728 31.89732244 6.71896029 43.3125 18.3125 C44.3025 19.30443359 44.3025 19.30443359 45.3125 20.31640625 C49.60487881 24.89556036 55.3125 31.74211636 55.3125 38.3125 C49.3125 36.3125 49.3125 36.3125 47.0859375 35.51171875 C43.05658359 34.0899902 39.65438375 32.8923177 35.3125 33.3125 C35.003125 34.8284375 35.003125 34.8284375 34.6875 36.375 C29.18573753 57.85084523 16.35051778 75.28790026 -2.21484375 87.30078125 C-5.31884368 88.5708223 -6.56142391 88.50847934 -9.6875 87.3125 C-21.56926279 78.04112449 -29.85627511 64.41541384 -34.6875 50.3125 C-35.079375 49.18585938 -35.47125 48.05921875 -35.875 46.8984375 C-38.82024321 37.34685014 -41.10289994 26.23403112 -38.6875 16.3125 C-36.06215268 12.23373282 -32.98916313 10.42492386 -28.6875 8.3125 C-27.0478125 7.45978516 -27.0478125 7.45978516 -25.375 6.58984375 C-16.96993825 2.4748656 -9.36600821 -0.07014986 0 0 Z " fill="#FAAD1B" transform="translate(73.6875,19.6875)"/>
<path d="M0 0 C7.69863548 0.57026929 14.53973765 2.69315843 21 7 C23.27518994 12.77139848 23.30241629 18.29168978 23.25 24.4375 C23.26160156 25.79198242 23.26160156 25.79198242 23.2734375 27.17382812 C23.24788129 35.99711019 21.38309157 43.01949303 17.4375 50.875 C17.09106445 51.56682373 16.74462891 52.25864746 16.38769531 52.97143555 C12.47473637 60.45963819 7.17567469 67.36451415 0 72 C-14.78034628 73.58360853 -28.82340805 65.50772528 -41 58 C-39.69275171 54.07825513 -38.12299163 53.62217487 -34.625 51.5 C-15.80288744 39.21985539 -5.83708921 21.25786442 0 0 Z " fill="#1A469D" transform="translate(109,52)"/>
<path d="M0 0 C-3.87571609 21.53569018 -14.72153168 38.99253215 -32.03515625 52.33984375 C-38.91660742 57.01700773 -38.91660742 57.01700773 -42.48828125 56.9609375 C-54.6041906 52.32561293 -63.57359488 34.86756358 -68.5390625 23.76953125 C-69 22 -69 22 -68 19 C-65.90803149 17.26160363 -63.84639013 15.68058232 -61.625 14.125 C-60.67161743 13.45573486 -60.67161743 13.45573486 -59.69897461 12.77294922 C-54.37650564 9.11863702 -49.08968189 6.19998123 -43 4 C-41.9996875 3.60941406 -40.999375 3.21882813 -39.96875 2.81640625 C-27.05093049 -1.46484356 -13.4367964 -0.36570366 0 0 Z " fill="#FDFDFD" transform="translate(109,51)"/>
<path d="M0 0 C1 3 1 3 0 6 C-1.62332967 7.38576923 -3.28724465 8.72641268 -5 10 C-5.66 9.67 -6.32 9.34 -7 9 C-4.69 6.03 -2.38 3.06 0 0 Z " fill="#2497D2" transform="translate(34,37)"/>
</svg>
